<svg width="269" height="268" viewBox="0 0 269 268" fill="none" xmlns="http://www.w3.org/2000/svg">
<path d="M234.5 249.966C234.546 246.712 235.552 243.544 237.393 240.861C239.234 238.178 241.828 236.099 244.847 234.885C247.867 233.672 251.178 233.379 254.363 234.042C257.549 234.706 260.468 236.296 262.752 238.614C265.036 240.932 266.584 243.873 267.201 247.068C267.818 250.263 267.476 253.57 266.218 256.571C264.961 259.572 262.844 262.135 260.134 263.937C257.424 265.738 254.242 266.698 250.988 266.696C248.806 266.68 246.65 266.234 244.641 265.385C242.632 264.536 240.81 263.299 239.279 261.745C237.748 260.192 236.538 258.352 235.718 256.331C234.898 254.31 234.484 252.147 234.5 249.966Z" stroke="white" stroke-width="2"/>
<path d="M234.5 249.966C234.546 246.712 235.552 243.544 237.393 240.861C239.234 238.178 241.828 236.099 244.847 234.885C247.867 233.672 251.178 233.379 254.363 234.042C257.549 234.706 260.468 236.296 262.752 238.614C265.036 240.932 266.584 243.873 267.201 247.068C267.818 250.263 267.476 253.57 266.218 256.571C264.961 259.572 262.844 262.135 260.134 263.937C257.424 265.738 254.242 266.698 250.988 266.696C248.806 266.68 246.65 266.234 244.641 265.385C242.632 264.536 240.81 263.299 239.279 261.745C237.748 260.192 236.538 258.352 235.718 256.331C234.898 254.31 234.484 252.147 234.5 249.966Z" stroke="url(#paint0_linear)" stroke-width="2"/>
<path d="M234.5 157.196C234.5 153.932 235.468 150.741 237.282 148.027C239.095 145.314 241.673 143.199 244.689 141.95C247.705 140.702 251.023 140.376 254.224 141.014C257.425 141.651 260.365 143.224 262.672 145.533C264.979 147.842 266.549 150.783 267.185 153.985C267.82 157.186 267.491 160.504 266.24 163.519C264.989 166.534 262.872 169.11 260.157 170.921C257.442 172.733 254.25 173.698 250.987 173.696C248.82 173.696 246.675 173.269 244.674 172.439C242.673 171.61 240.855 170.394 239.324 168.862C237.793 167.33 236.579 165.511 235.751 163.509C234.923 161.507 234.498 159.362 234.5 157.196V157.196Z" stroke="white" stroke-width="2"/>
<path d="M234.5 157.196C234.5 153.932 235.468 150.741 237.282 148.027C239.095 145.314 241.673 143.199 244.689 141.95C247.705 140.702 251.023 140.376 254.224 141.014C257.425 141.651 260.365 143.224 262.672 145.533C264.979 147.842 266.549 150.783 267.185 153.985C267.82 157.186 267.491 160.504 266.24 163.519C264.989 166.534 262.872 169.11 260.157 170.921C257.442 172.733 254.25 173.698 250.987 173.696C248.82 173.696 246.675 173.269 244.674 172.439C242.673 171.61 240.855 170.394 239.324 168.862C237.793 167.33 236.579 165.511 235.751 163.509C234.923 161.507 234.498 159.362 234.5 157.196V157.196Z" stroke="url(#paint1_linear)" stroke-width="2"/>
<path d="M234.5 19.2091C234.497 15.9445 235.463 12.7525 237.275 10.0371C239.087 7.32159 241.664 5.20466 244.679 3.95414C247.695 2.70362 251.014 2.37572 254.216 3.01195C257.418 3.64817 260.359 5.21992 262.667 7.5283C264.976 9.83668 266.547 12.7779 267.184 15.9799C267.82 19.1818 267.492 22.5005 266.241 25.5161C264.991 28.5316 262.874 31.1084 260.158 32.9204C257.443 34.7324 254.251 35.6982 250.987 35.6956C246.614 35.6956 242.421 33.9586 239.329 30.8668C236.237 27.775 234.5 23.5815 234.5 19.2091V19.2091Z" stroke="white" stroke-width="2"/>
<path d="M234.5 19.2091C234.497 15.9445 235.463 12.7525 237.275 10.0371C239.087 7.32159 241.664 5.20466 244.679 3.95414C247.695 2.70362 251.014 2.37572 254.216 3.01195C257.418 3.64817 260.359 5.21992 262.667 7.5283C264.976 9.83668 266.547 12.7779 267.184 15.9799C267.82 19.1818 267.492 22.5005 266.241 25.5161C264.991 28.5316 262.874 31.1084 260.158 32.9204C257.443 34.7324 254.251 35.6982 250.987 35.6956C246.614 35.6956 242.421 33.9586 239.329 30.8668C236.237 27.775 234.5 23.5815 234.5 19.2091V19.2091Z" stroke="url(#paint2_linear)" stroke-width="2"/>
<path d="M187.5 249.696C187.5 246.333 188.497 243.046 190.365 240.251C192.233 237.455 194.888 235.276 197.994 233.99C201.101 232.703 204.519 232.366 207.817 233.022C211.114 233.678 214.143 235.297 216.521 237.675C218.898 240.052 220.517 243.081 221.173 246.379C221.829 249.677 221.493 253.095 220.206 256.201C218.919 259.308 216.74 261.963 213.945 263.831C211.149 265.699 207.862 266.696 204.5 266.696C199.991 266.696 195.667 264.905 192.479 261.716C189.291 258.528 187.5 254.204 187.5 249.696V249.696Z" stroke="white" stroke-width="2"/>
<path d="M187.5 249.696C187.5 246.333 188.497 243.046 190.365 240.251C192.233 237.455 194.888 235.276 197.994 233.99C201.101 232.703 204.519 232.366 207.817 233.022C211.114 233.678 214.143 235.297 216.521 237.675C218.898 240.052 220.517 243.081 221.173 246.379C221.829 249.677 221.493 253.095 220.206 256.201C218.919 259.308 216.74 261.963 213.945 263.831C211.149 265.699 207.862 266.696 204.5 266.696C199.991 266.696 195.667 264.905 192.479 261.716C189.291 258.528 187.5 254.204 187.5 249.696V249.696Z" stroke="url(#paint3_linear)" stroke-width="2"/>
<path d="M187.502 157.929C187.455 154.557 188.413 151.247 190.253 148.421C192.092 145.595 194.731 143.38 197.833 142.058C200.935 140.735 204.36 140.365 207.673 140.994C210.986 141.624 214.037 143.224 216.437 145.592C218.838 147.96 220.481 150.988 221.156 154.292C221.831 157.596 221.508 161.026 220.229 164.146C218.949 167.266 216.771 169.935 213.97 171.813C211.17 173.692 207.874 174.695 204.502 174.695C202.284 174.711 200.085 174.291 198.031 173.457C195.976 172.623 194.106 171.392 192.527 169.835C190.948 168.278 189.692 166.425 188.829 164.382C187.967 162.339 187.516 160.146 187.502 157.929Z" stroke="white" stroke-width="2"/>
<path d="M187.502 157.929C187.455 154.557 188.413 151.247 190.253 148.421C192.092 145.595 194.731 143.38 197.833 142.058C200.935 140.735 204.36 140.365 207.673 140.994C210.986 141.624 214.037 143.224 216.437 145.592C218.838 147.96 220.481 150.988 221.156 154.292C221.831 157.596 221.508 161.026 220.229 164.146C218.949 167.266 216.771 169.935 213.97 171.813C211.17 173.692 207.874 174.695 204.502 174.695C202.284 174.711 200.085 174.291 198.031 173.457C195.976 172.623 194.106 171.392 192.527 169.835C190.948 168.278 189.692 166.425 188.829 164.382C187.967 162.339 187.516 160.146 187.502 157.929Z" stroke="url(#paint4_linear)" stroke-width="2"/>
<path d="M187.5 111.696C187.5 108.333 188.497 105.046 190.365 102.251C192.233 99.4552 194.888 97.2763 197.994 95.9896C201.101 94.7029 204.519 94.3663 207.817 95.0222C211.114 95.6782 214.143 97.2973 216.521 99.6747C218.898 102.052 220.517 105.081 221.173 108.379C221.829 111.677 221.493 115.095 220.206 118.201C218.919 121.308 216.74 123.963 213.945 125.831C211.149 127.699 207.862 128.696 204.5 128.696C199.991 128.696 195.667 126.905 192.479 123.716C189.291 120.528 187.5 116.204 187.5 111.696V111.696Z" stroke="white" stroke-width="2"/>
<path d="M187.5 111.696C187.5 108.333 188.497 105.046 190.365 102.251C192.233 99.4552 194.888 97.2763 197.994 95.9896C201.101 94.7029 204.519 94.3663 207.817 95.0222C211.114 95.6782 214.143 97.2973 216.521 99.6747C218.898 102.052 220.517 105.081 221.173 108.379C221.829 111.677 221.493 115.095 220.206 118.201C218.919 121.308 216.74 123.963 213.945 125.831C211.149 127.699 207.862 128.696 204.5 128.696C199.991 128.696 195.667 126.905 192.479 123.716C189.291 120.528 187.5 116.204 187.5 111.696V111.696Z" stroke="url(#paint5_linear)" stroke-width="2"/>
<path d="M187.502 65.9423C187.453 62.57 188.408 59.2593 190.246 56.4314C192.084 53.6035 194.722 51.3862 197.823 50.0616C200.925 48.737 204.351 48.3649 207.664 48.9927C210.978 49.6204 214.03 51.2197 216.433 53.5871C218.835 55.9544 220.479 58.9828 221.155 62.287C221.831 65.5912 221.509 69.0218 220.23 72.1425C218.951 75.2633 216.772 77.933 213.972 79.8121C211.171 81.6912 207.875 82.6947 204.502 82.6951C202.286 82.7114 200.088 82.291 198.034 81.4579C195.98 80.6247 194.111 79.3953 192.532 77.8396C190.953 76.284 189.697 74.4326 188.834 72.3913C187.971 70.3499 187.518 68.1585 187.502 65.9423Z" stroke="white" stroke-width="2"/>
<path d="M187.502 65.9423C187.453 62.57 188.408 59.2593 190.246 56.4314C192.084 53.6035 194.722 51.3862 197.823 50.0616C200.925 48.737 204.351 48.3649 207.664 48.9927C210.978 49.6204 214.03 51.2197 216.433 53.5871C218.835 55.9544 220.479 58.9828 221.155 62.287C221.831 65.5912 221.509 69.0218 220.23 72.1425C218.951 75.2633 216.772 77.933 213.972 79.8121C211.171 81.6912 207.875 82.6947 204.502 82.6951C202.286 82.7114 200.088 82.291 198.034 81.4579C195.98 80.6247 194.111 79.3953 192.532 77.8396C190.953 76.284 189.697 74.4326 188.834 72.3913C187.971 70.3499 187.518 68.1585 187.502 65.9423Z" stroke="url(#paint6_linear)" stroke-width="2"/>
<path d="M187.502 19.9423C187.453 16.57 188.408 13.2593 190.246 10.4314C192.084 7.6035 194.722 5.38621 197.823 4.06158C200.925 2.73696 204.351 2.36488 207.664 2.99266C210.978 3.62044 214.03 5.21973 216.433 7.58706C218.835 9.95439 220.479 12.9828 221.155 16.287C221.831 19.5912 221.509 23.0218 220.23 26.1425C218.951 29.2632 216.772 31.933 213.972 33.8121C211.171 35.6912 207.875 36.6947 204.502 36.6951C202.286 36.7114 200.088 36.291 198.034 35.4578C195.98 34.6247 194.111 33.3953 192.532 31.8396C190.953 30.284 189.697 28.4326 188.834 26.3912C187.971 24.3499 187.518 22.1585 187.502 19.9423V19.9423Z" stroke="white" stroke-width="2"/>
<path d="M187.502 19.9423C187.453 16.57 188.408 13.2593 190.246 10.4314C192.084 7.6035 194.722 5.38621 197.823 4.06158C200.925 2.73696 204.351 2.36488 207.664 2.99266C210.978 3.62044 214.03 5.21973 216.433 7.58706C218.835 9.95439 220.479 12.9828 221.155 16.287C221.831 19.5912 221.509 23.0218 220.23 26.1425C218.951 29.2632 216.772 31.933 213.972 33.8121C211.171 35.6912 207.875 36.6947 204.502 36.6951C202.286 36.7114 200.088 36.291 198.034 35.4578C195.98 34.6247 194.111 33.3953 192.532 31.8396C190.953 30.284 189.697 28.4326 188.834 26.3912C187.971 24.3499 187.518 22.1585 187.502 19.9423V19.9423Z" stroke="url(#paint7_linear)" stroke-width="2"/>
<path d="M141.5 249.966C141.546 246.71 142.554 243.54 144.397 240.855C146.24 238.171 148.837 236.092 151.86 234.88C154.882 233.669 158.196 233.378 161.383 234.046C164.571 234.714 167.489 236.31 169.771 238.633C172.053 240.956 173.597 243.903 174.207 247.102C174.818 250.3 174.468 253.608 173.203 256.608C171.937 259.609 169.812 262.168 167.095 263.963C164.378 265.758 161.19 266.708 157.934 266.695C153.538 266.649 149.34 264.862 146.26 261.726C143.18 258.59 141.468 254.361 141.5 249.966V249.966Z" stroke="white" stroke-width="2"/>
<path d="M141.5 249.966C141.546 246.71 142.554 243.54 144.397 240.855C146.24 238.171 148.837 236.092 151.86 234.88C154.882 233.669 158.196 233.378 161.383 234.046C164.571 234.714 167.489 236.31 169.771 238.633C172.053 240.956 173.597 243.903 174.207 247.102C174.818 250.3 174.468 253.608 173.203 256.608C171.937 259.609 169.812 262.168 167.095 263.963C164.378 265.758 161.19 266.708 157.934 266.695C153.538 266.649 149.34 264.862 146.26 261.726C143.18 258.59 141.468 254.361 141.5 249.966V249.966Z" stroke="url(#paint8_linear)" stroke-width="2"/>
<path d="M141.5 203.209C141.497 199.942 142.465 196.748 144.279 194.031C146.093 191.315 148.673 189.198 151.692 187.949C154.711 186.7 158.032 186.375 161.236 187.016C164.439 187.657 167.38 189.234 169.686 191.547C171.993 193.861 173.56 196.808 174.19 200.013C174.82 203.219 174.485 206.539 173.226 209.553C171.967 212.568 169.842 215.141 167.119 216.947C164.397 218.752 161.199 219.709 157.932 219.695C153.57 219.678 149.393 217.933 146.314 214.844C143.234 211.754 141.504 207.571 141.5 203.209V203.209Z" stroke="white" stroke-width="2"/>
<path d="M141.5 203.209C141.497 199.942 142.465 196.748 144.279 194.031C146.093 191.315 148.673 189.198 151.692 187.949C154.711 186.7 158.032 186.375 161.236 187.016C164.439 187.657 167.38 189.234 169.686 191.547C171.993 193.861 173.56 196.808 174.19 200.013C174.82 203.219 174.485 206.539 173.226 209.553C171.967 212.568 169.842 215.141 167.119 216.947C164.397 218.752 161.199 219.709 157.932 219.695C153.57 219.678 149.393 217.933 146.314 214.844C143.234 211.754 141.504 207.571 141.5 203.209V203.209Z" stroke="url(#paint9_linear)" stroke-width="2"/>
<mask id="path-11-inside-1" fill="white">
<path d="M158.232 129.694C154.762 129.74 151.356 128.753 148.447 126.858C145.539 124.964 143.26 122.247 141.9 119.054C140.54 115.86 140.16 112.335 140.808 108.925C141.457 105.515 143.105 102.375 145.543 99.9043C147.981 97.4335 151.098 95.7436 154.499 95.0492C157.9 94.3549 161.431 94.6877 164.642 96.0051C167.853 97.3225 170.6 99.5651 172.533 102.448C174.467 105.33 175.499 108.723 175.5 112.194C175.516 114.477 175.082 116.741 174.223 118.856C173.364 120.972 172.096 122.897 170.492 124.522C168.889 126.148 166.981 127.441 164.877 128.328C162.773 129.216 160.515 129.68 158.232 129.694Z"/>
</mask>
<path d="M175.5 112.194L173.5 112.194L173.5 112.208L175.5 112.194ZM158.206 127.694C155.132 127.735 152.115 126.861 149.539 125.183L147.356 128.534C150.596 130.645 154.392 131.745 158.259 131.694L158.206 127.694ZM149.539 125.183C146.963 123.505 144.945 121.098 143.74 118.27L140.06 119.838C141.575 123.396 144.115 126.423 147.356 128.534L149.539 125.183ZM143.74 118.27C142.535 115.442 142.199 112.319 142.773 109.299L138.844 108.551C138.121 112.35 138.544 116.279 140.06 119.838L143.74 118.27ZM142.773 109.299C143.348 106.278 144.807 103.497 146.967 101.309L144.119 98.4995C141.403 101.253 139.567 104.751 138.844 108.551L142.773 109.299ZM146.967 101.309C149.126 99.1206 151.887 97.6238 154.899 97.0088L154.099 93.0897C150.31 93.8633 146.836 95.7464 144.119 98.4995L146.967 101.309ZM154.899 97.0088C157.912 96.3939 161.038 96.6886 163.883 97.8554L165.401 94.1547C161.823 92.6867 157.889 92.316 154.099 93.0897L154.899 97.0088ZM163.883 97.8554C166.727 99.0223 169.16 101.009 170.872 103.562L174.194 101.334C172.04 98.1216 168.979 95.6227 165.401 94.1547L163.883 97.8554ZM170.872 103.562C172.585 106.115 173.499 109.12 173.5 112.194L177.5 112.194C177.499 108.326 176.349 104.546 174.194 101.334L170.872 103.562ZM173.5 112.208C173.514 114.229 173.13 116.232 172.37 118.104L176.076 119.609C177.034 117.25 177.518 114.726 177.5 112.18L173.5 112.208ZM172.37 118.104C171.61 119.976 170.488 121.679 169.069 123.118L171.916 125.927C173.704 124.115 175.118 121.968 176.076 119.609L172.37 118.104ZM169.069 123.118C167.65 124.556 165.961 125.7 164.1 126.485L165.654 130.171C168 129.181 170.128 127.739 171.916 125.927L169.069 123.118ZM164.1 126.485C162.238 127.271 160.24 127.681 158.22 127.694L158.245 131.694C160.791 131.678 163.309 131.16 165.654 130.171L164.1 126.485Z" fill="white" mask="url(#path-11-inside-1)"/>
<path d="M175.5 112.194L173.5 112.194L173.5 112.208L175.5 112.194ZM158.206 127.694C155.132 127.735 152.115 126.861 149.539 125.183L147.356 128.534C150.596 130.645 154.392 131.745 158.259 131.694L158.206 127.694ZM149.539 125.183C146.963 123.505 144.945 121.098 143.74 118.27L140.06 119.838C141.575 123.396 144.115 126.423 147.356 128.534L149.539 125.183ZM143.74 118.27C142.535 115.442 142.199 112.319 142.773 109.299L138.844 108.551C138.121 112.35 138.544 116.279 140.06 119.838L143.74 118.27ZM142.773 109.299C143.348 106.278 144.807 103.497 146.967 101.309L144.119 98.4995C141.403 101.253 139.567 104.751 138.844 108.551L142.773 109.299ZM146.967 101.309C149.126 99.1206 151.887 97.6238 154.899 97.0088L154.099 93.0897C150.31 93.8633 146.836 95.7464 144.119 98.4995L146.967 101.309ZM154.899 97.0088C157.912 96.3939 161.038 96.6886 163.883 97.8554L165.401 94.1547C161.823 92.6867 157.889 92.316 154.099 93.0897L154.899 97.0088ZM163.883 97.8554C166.727 99.0223 169.16 101.009 170.872 103.562L174.194 101.334C172.04 98.1216 168.979 95.6227 165.401 94.1547L163.883 97.8554ZM170.872 103.562C172.585 106.115 173.499 109.12 173.5 112.194L177.5 112.194C177.499 108.326 176.349 104.546 174.194 101.334L170.872 103.562ZM173.5 112.208C173.514 114.229 173.13 116.232 172.37 118.104L176.076 119.609C177.034 117.25 177.518 114.726 177.5 112.18L173.5 112.208ZM172.37 118.104C171.61 119.976 170.488 121.679 169.069 123.118L171.916 125.927C173.704 124.115 175.118 121.968 176.076 119.609L172.37 118.104ZM169.069 123.118C167.65 124.556 165.961 125.7 164.1 126.485L165.654 130.171C168 129.181 170.128 127.739 171.916 125.927L169.069 123.118ZM164.1 126.485C162.238 127.271 160.24 127.681 158.22 127.694L158.245 131.694C160.791 131.678 163.309 131.16 165.654 130.171L164.1 126.485Z" fill="url(#paint10_linear)" mask="url(#path-11-inside-1)"/>
<path d="M159 82.6956C155.737 82.6956 152.547 81.7278 149.833 79.9148C147.12 78.1018 145.005 75.5248 143.756 72.5098C142.507 69.4949 142.18 66.1773 142.817 62.9766C143.454 59.7759 145.025 56.8359 147.333 54.5283C149.64 52.2207 152.58 50.6493 155.781 50.0126C158.982 49.376 162.299 49.7027 165.314 50.9516C168.329 52.2004 170.906 54.3152 172.719 57.0287C174.532 59.7421 175.5 62.9322 175.5 66.1956C175.5 70.5716 173.762 74.7685 170.667 77.8628C167.573 80.9572 163.376 82.6956 159 82.6956Z" stroke="white" stroke-width="2"/>
<path d="M159 82.6956C155.737 82.6956 152.547 81.7278 149.833 79.9148C147.12 78.1018 145.005 75.5248 143.756 72.5098C142.507 69.4949 142.18 66.1773 142.817 62.9766C143.454 59.7759 145.025 56.8359 147.333 54.5283C149.64 52.2207 152.58 50.6493 155.781 50.0126C158.982 49.376 162.299 49.7027 165.314 50.9516C168.329 52.2004 170.906 54.3152 172.719 57.0287C174.532 59.7421 175.5 62.9322 175.5 66.1956C175.5 70.5716 173.762 74.7685 170.667 77.8628C167.573 80.9572 163.376 82.6956 159 82.6956Z" stroke="url(#paint11_linear)" stroke-width="2"/>
<path d="M159.001 36.6955H159C155.736 36.6955 152.545 35.7275 149.832 33.9139C147.118 32.1003 145.003 29.5225 143.755 26.5068C142.506 23.4911 142.18 20.1728 142.818 16.9718C143.456 13.7707 145.028 10.8307 147.337 8.52367C149.646 6.21663 152.587 4.6462 155.789 4.01102C158.991 3.37584 162.309 3.70445 165.323 4.9553C168.338 6.20615 170.914 8.32304 172.726 11.0382C174.537 13.7533 175.503 16.9447 175.5 20.2086V20.2094C175.5 22.3755 175.073 24.5204 174.244 26.5214C173.414 28.5225 172.199 30.3404 170.667 31.8715C169.134 33.4025 167.315 34.6166 165.314 35.4444C163.312 36.2721 161.167 36.6973 159.001 36.6955Z" stroke="white" stroke-width="2"/>
<path d="M159.001 36.6955H159C155.736 36.6955 152.545 35.7275 149.832 33.9139C147.118 32.1003 145.003 29.5225 143.755 26.5068C142.506 23.4911 142.18 20.1728 142.818 16.9718C143.456 13.7707 145.028 10.8307 147.337 8.52367C149.646 6.21663 152.587 4.6462 155.789 4.01102C158.991 3.37584 162.309 3.70445 165.323 4.9553C168.338 6.20615 170.914 8.32304 172.726 11.0382C174.537 13.7533 175.503 16.9447 175.5 20.2086V20.2094C175.5 22.3755 175.073 24.5204 174.244 26.5214C173.414 28.5225 172.199 30.3404 170.667 31.8715C169.134 33.4025 167.315 34.6166 165.314 35.4444C163.312 36.2721 161.167 36.6973 159.001 36.6955Z" stroke="url(#paint12_linear)" stroke-width="2"/>
<mask id="path-15-inside-2" fill="white">
<path d="M113.014 221.696C109.552 221.698 106.166 220.674 103.286 218.752C100.406 216.83 98.161 214.097 96.8348 210.899C95.5085 207.701 95.1608 204.181 95.8356 200.785C96.5104 197.389 98.1774 194.269 100.626 191.821C103.074 189.373 106.193 187.706 109.589 187.031C112.985 186.356 116.505 186.704 119.703 188.03C122.902 189.357 125.635 191.602 127.556 194.482C129.478 197.362 130.503 200.747 130.5 204.209C130.5 206.506 130.048 208.78 129.169 210.901C128.29 213.023 127.002 214.95 125.378 216.574C123.755 218.198 121.827 219.486 119.706 220.364C117.584 221.243 115.31 221.696 113.014 221.696Z"/>
</mask>
<path d="M130.5 204.209L128.5 204.208V204.209H130.5ZM113.012 219.696C109.946 219.698 106.947 218.791 104.396 217.088L102.176 220.416C105.385 222.557 109.157 223.699 113.015 223.696L113.012 219.696ZM104.396 217.088C101.845 215.386 99.8569 212.966 98.6822 210.133L94.9873 211.665C96.4651 215.229 98.9669 218.274 102.176 220.416L104.396 217.088ZM98.6822 210.133C97.5075 207.3 97.1996 204.183 97.7972 201.175L93.8739 200.395C93.122 204.179 93.5095 208.101 94.9873 211.665L98.6822 210.133ZM97.7972 201.175C98.3949 198.167 99.8714 195.404 102.04 193.235L99.2114 190.407C96.4834 193.135 94.6259 196.611 93.8739 200.395L97.7972 201.175ZM102.04 193.235C104.208 191.067 106.971 189.59 109.979 188.993L109.2 185.069C105.415 185.821 101.939 187.679 99.2114 190.407L102.04 193.235ZM109.979 188.993C112.987 188.395 116.104 188.703 118.937 189.878L120.469 186.183C116.906 184.705 112.984 184.318 109.2 185.069L109.979 188.993ZM118.937 189.878C121.77 191.052 124.191 193.041 125.893 195.592L129.22 193.372C127.079 190.162 124.033 187.661 120.469 186.183L118.937 189.878ZM125.893 195.592C127.595 198.143 128.502 201.141 128.5 204.208L132.5 204.211C132.503 200.353 131.362 196.581 129.22 193.372L125.893 195.592ZM128.5 204.209C128.5 206.243 128.099 208.257 127.321 210.136L131.017 211.666C131.996 209.302 132.5 206.768 132.5 204.209H128.5ZM127.321 210.136C126.543 212.015 125.402 213.722 123.964 215.16L126.793 217.988C128.602 216.179 130.037 214.031 131.017 211.666L127.321 210.136ZM123.964 215.16C122.526 216.598 120.819 217.738 118.94 218.517L120.471 222.212C122.835 221.233 124.983 219.798 126.793 217.988L123.964 215.16ZM118.94 218.517C117.061 219.295 115.048 219.696 113.014 219.696V223.696C115.573 223.696 118.107 223.192 120.471 222.212L118.94 218.517Z" fill="white" mask="url(#path-15-inside-2)"/>
<path d="M130.5 204.209L128.5 204.208V204.209H130.5ZM113.012 219.696C109.946 219.698 106.947 218.791 104.396 217.088L102.176 220.416C105.385 222.557 109.157 223.699 113.015 223.696L113.012 219.696ZM104.396 217.088C101.845 215.386 99.8569 212.966 98.6822 210.133L94.9873 211.665C96.4651 215.229 98.9669 218.274 102.176 220.416L104.396 217.088ZM98.6822 210.133C97.5075 207.3 97.1996 204.183 97.7972 201.175L93.8739 200.395C93.122 204.179 93.5095 208.101 94.9873 211.665L98.6822 210.133ZM97.7972 201.175C98.3949 198.167 99.8714 195.404 102.04 193.235L99.2114 190.407C96.4834 193.135 94.6259 196.611 93.8739 200.395L97.7972 201.175ZM102.04 193.235C104.208 191.067 106.971 189.59 109.979 188.993L109.2 185.069C105.415 185.821 101.939 187.679 99.2114 190.407L102.04 193.235ZM109.979 188.993C112.987 188.395 116.104 188.703 118.937 189.878L120.469 186.183C116.906 184.705 112.984 184.318 109.2 185.069L109.979 188.993ZM118.937 189.878C121.77 191.052 124.191 193.041 125.893 195.592L129.22 193.372C127.079 190.162 124.033 187.661 120.469 186.183L118.937 189.878ZM125.893 195.592C127.595 198.143 128.502 201.141 128.5 204.208L132.5 204.211C132.503 200.353 131.362 196.581 129.22 193.372L125.893 195.592ZM128.5 204.209C128.5 206.243 128.099 208.257 127.321 210.136L131.017 211.666C131.996 209.302 132.5 206.768 132.5 204.209H128.5ZM127.321 210.136C126.543 212.015 125.402 213.722 123.964 215.16L126.793 217.988C128.602 216.179 130.037 214.031 131.017 211.666L127.321 210.136ZM123.964 215.16C122.526 216.598 120.819 217.738 118.94 218.517L120.471 222.212C122.835 221.233 124.983 219.798 126.793 217.988L123.964 215.16ZM118.94 218.517C117.061 219.295 115.048 219.696 113.014 219.696V223.696C115.573 223.696 118.107 223.192 120.471 222.212L118.94 218.517Z" fill="url(#paint13_linear)" mask="url(#path-15-inside-2)"/>
<mask id="path-17-inside-3" fill="white">
<path d="M113.014 175.696C109.552 175.698 106.167 174.674 103.288 172.753C100.408 170.832 98.1628 168.1 96.8361 164.902C95.5094 161.705 95.1609 158.186 95.8346 154.79C96.5082 151.394 98.1739 148.275 100.621 145.826C103.068 143.377 106.186 141.709 109.581 141.033C112.976 140.356 116.495 140.702 119.694 142.026C122.892 143.35 125.626 145.593 127.55 148.472C129.473 151.35 130.5 154.734 130.5 158.196C130.5 162.834 128.658 167.284 125.379 170.565C122.1 173.847 117.653 175.692 113.014 175.696Z"/>
</mask>
<path d="M130.5 158.196H132.5H130.5ZM113.012 173.696C109.946 173.698 106.948 172.791 104.398 171.089L102.178 174.417C105.386 176.558 109.158 177.699 113.015 177.696L113.012 173.696ZM104.398 171.089C101.847 169.388 99.8584 166.968 98.6834 164.136L94.9888 165.669C96.4671 169.231 98.9688 172.276 102.178 174.417L104.398 171.089ZM98.6834 164.136C97.5084 161.304 97.1997 158.187 97.7963 155.179L93.8728 154.401C93.1221 158.184 93.5105 162.106 94.9888 165.669L98.6834 164.136ZM97.7963 155.179C98.393 152.172 99.8683 149.409 102.036 147.24L99.206 144.412C96.4795 147.141 94.6235 150.617 93.8728 154.401L97.7963 155.179ZM102.036 147.24C104.203 145.071 106.965 143.593 109.972 142.994L109.19 139.071C105.407 139.825 101.932 141.684 99.206 144.412L102.036 147.24ZM109.972 142.994C112.979 142.395 116.096 142.701 118.929 143.874L120.459 140.178C116.895 138.703 112.973 138.318 109.19 139.071L109.972 142.994ZM118.929 143.874C121.762 145.047 124.183 147.034 125.887 149.583L129.213 147.36C127.069 144.153 124.023 141.654 120.459 140.178L118.929 143.874ZM125.887 149.583C127.591 152.132 128.5 155.129 128.5 158.196H132.5C132.5 154.338 131.356 150.567 129.213 147.36L125.887 149.583ZM128.5 158.196C128.5 162.304 126.869 166.245 123.964 169.151L126.794 171.979C130.448 168.322 132.5 163.365 132.5 158.196H128.5ZM123.964 169.151C121.06 172.058 117.121 173.692 113.012 173.696L113.015 177.696C118.185 177.691 123.14 175.635 126.794 171.979L123.964 169.151Z" fill="white" mask="url(#path-17-inside-3)"/>
<path d="M130.5 158.196H132.5H130.5ZM113.012 173.696C109.946 173.698 106.948 172.791 104.398 171.089L102.178 174.417C105.386 176.558 109.158 177.699 113.015 177.696L113.012 173.696ZM104.398 171.089C101.847 169.388 99.8584 166.968 98.6834 164.136L94.9888 165.669C96.4671 169.231 98.9688 172.276 102.178 174.417L104.398 171.089ZM98.6834 164.136C97.5084 161.304 97.1997 158.187 97.7963 155.179L93.8728 154.401C93.1221 158.184 93.5105 162.106 94.9888 165.669L98.6834 164.136ZM97.7963 155.179C98.393 152.172 99.8683 149.409 102.036 147.24L99.206 144.412C96.4795 147.141 94.6235 150.617 93.8728 154.401L97.7963 155.179ZM102.036 147.24C104.203 145.071 106.965 143.593 109.972 142.994L109.19 139.071C105.407 139.825 101.932 141.684 99.206 144.412L102.036 147.24ZM109.972 142.994C112.979 142.395 116.096 142.701 118.929 143.874L120.459 140.178C116.895 138.703 112.973 138.318 109.19 139.071L109.972 142.994ZM118.929 143.874C121.762 145.047 124.183 147.034 125.887 149.583L129.213 147.36C127.069 144.153 124.023 141.654 120.459 140.178L118.929 143.874ZM125.887 149.583C127.591 152.132 128.5 155.129 128.5 158.196H132.5C132.5 154.338 131.356 150.567 129.213 147.36L125.887 149.583ZM128.5 158.196C128.5 162.304 126.869 166.245 123.964 169.151L126.794 171.979C130.448 168.322 132.5 163.365 132.5 158.196H128.5ZM123.964 169.151C121.06 172.058 117.121 173.692 113.012 173.696L113.015 177.696C118.185 177.691 123.14 175.635 126.794 171.979L123.964 169.151Z" fill="url(#paint14_linear)" mask="url(#path-17-inside-3)"/>
<path d="M113 128.696C122.113 128.696 129.5 121.084 129.5 111.696C129.5 102.307 122.113 94.6956 113 94.6956C103.887 94.6956 96.5 102.307 96.5 111.696C96.5 121.084 103.887 128.696 113 128.696Z" stroke="white" stroke-width="2"/>
<path d="M113 128.696C122.113 128.696 129.5 121.084 129.5 111.696C129.5 102.307 122.113 94.6956 113 94.6956C103.887 94.6956 96.5 102.307 96.5 111.696C96.5 121.084 103.887 128.696 113 128.696Z" stroke="url(#paint15_linear)" stroke-width="2"/>
<path d="M128.366 69.0425C130.416 60.1634 124.88 51.3035 116 49.2534C107.121 47.2033 98.2616 52.7393 96.2117 61.6185C94.1618 70.4976 99.6979 79.3575 108.577 81.4076C117.456 83.4577 126.316 77.9217 128.366 69.0425Z" stroke="white" stroke-width="2"/>
<path d="M128.366 69.0425C130.416 60.1634 124.88 51.3035 116 49.2534C107.121 47.2033 98.2616 52.7393 96.2117 61.6185C94.1618 70.4976 99.6979 79.3575 108.577 81.4076C117.456 83.4577 126.316 77.9217 128.366 69.0425Z" stroke="url(#paint16_linear)" stroke-width="2"/>
<path d="M113.014 36.6956H113.013C109.749 36.6981 106.557 35.7323 103.841 33.9202C101.126 32.1082 99.009 29.5314 97.7585 26.5159C96.508 23.5004 96.1802 20.1817 96.8164 16.9798C97.4527 13.7779 99.0244 10.8366 101.333 8.5283C103.641 6.21995 106.582 4.64821 109.784 4.01197C112.986 3.37573 116.305 3.70359 119.32 4.95405C122.336 6.20452 124.913 8.32139 126.725 11.0368C128.537 13.7522 129.503 16.9441 129.5 20.2086V20.2094C129.5 22.3744 129.074 24.5182 128.245 26.5184C127.417 28.5186 126.202 30.336 124.671 31.8669C123.14 33.3978 121.323 34.6121 119.323 35.4406C117.323 36.2691 115.179 36.6956 113.014 36.6956ZM130.5 20.2094C130.5 22.5057 130.048 24.7796 129.169 26.9011C128.29 29.0226 127.002 30.9502 125.378 32.574C123.755 34.1977 121.827 35.4857 119.706 36.3645C117.584 37.2433 115.31 37.6956 113.014 37.6956L130.5 20.2094Z" stroke="white" stroke-width="2"/>
<path d="M113.014 36.6956H113.013C109.749 36.6981 106.557 35.7323 103.841 33.9202C101.126 32.1082 99.009 29.5314 97.7585 26.5159C96.508 23.5004 96.1802 20.1817 96.8164 16.9798C97.4527 13.7779 99.0244 10.8366 101.333 8.5283C103.641 6.21995 106.582 4.64821 109.784 4.01197C112.986 3.37573 116.305 3.70359 119.32 4.95405C122.336 6.20452 124.913 8.32139 126.725 11.0368C128.537 13.7522 129.503 16.9441 129.5 20.2086V20.2094C129.5 22.3744 129.074 24.5182 128.245 26.5184C127.417 28.5186 126.202 30.336 124.671 31.8669C123.14 33.3978 121.323 34.6121 119.323 35.4406C117.323 36.2691 115.179 36.6956 113.014 36.6956ZM130.5 20.2094C130.5 22.5057 130.048 24.7796 129.169 26.9011C128.29 29.0226 127.002 30.9502 125.378 32.574C123.755 34.1977 121.827 35.4857 119.706 36.3645C117.584 37.2433 115.31 37.6956 113.014 37.6956L130.5 20.2094Z" stroke="url(#paint17_linear)" stroke-width="2"/>
<path d="M66.5 219.696C75.8888 219.696 83.5 212.308 83.5 203.196C83.5 194.083 75.8888 186.696 66.5 186.696C57.1112 186.696 49.5 194.083 49.5 203.196C49.5 212.308 57.1112 219.696 66.5 219.696Z" stroke="white" stroke-width="2"/>
<path d="M66.5 219.696C75.8888 219.696 83.5 212.308 83.5 203.196C83.5 194.083 75.8888 186.696 66.5 186.696C57.1112 186.696 49.5 194.083 49.5 203.196C49.5 212.308 57.1112 219.696 66.5 219.696Z" stroke="url(#paint18_linear)" stroke-width="2"/>
<path d="M66.5 128.696C75.8888 128.696 83.5 121.084 83.5 111.696C83.5 102.307 75.8888 94.6956 66.5 94.6956C57.1112 94.6956 49.5 102.307 49.5 111.696C49.5 121.084 57.1112 128.696 66.5 128.696Z" stroke="white" stroke-width="2"/>
<path d="M66.5 128.696C75.8888 128.696 83.5 121.084 83.5 111.696C83.5 102.307 75.8888 94.6956 66.5 94.6956C57.1112 94.6956 49.5 102.307 49.5 111.696C49.5 121.084 57.1112 128.696 66.5 128.696Z" stroke="url(#paint19_linear)" stroke-width="2"/>
<path d="M66.5 81.6956C75.8888 81.6956 83.5 74.3082 83.5 65.1956C83.5 56.0829 75.8888 48.6956 66.5 48.6956C57.1112 48.6956 49.5 56.0829 49.5 65.1956C49.5 74.3082 57.1112 81.6956 66.5 81.6956Z" stroke="white" stroke-width="2"/>
<path d="M66.5 81.6956C75.8888 81.6956 83.5 74.3082 83.5 65.1956C83.5 56.0829 75.8888 48.6956 66.5 48.6956C57.1112 48.6956 49.5 56.0829 49.5 65.1956C49.5 74.3082 57.1112 81.6956 66.5 81.6956Z" stroke="url(#paint20_linear)" stroke-width="2"/>
<path d="M20 219.696C29.1127 219.696 36.5 212.308 36.5 203.196C36.5 194.083 29.1127 186.696 20 186.696C10.8873 186.696 3.5 194.083 3.5 203.196C3.5 212.308 10.8873 219.696 20 219.696Z" stroke="white" stroke-width="2"/>
<path d="M20 219.696C29.1127 219.696 36.5 212.308 36.5 203.196C36.5 194.083 29.1127 186.696 20 186.696C10.8873 186.696 3.5 194.083 3.5 203.196C3.5 212.308 10.8873 219.696 20 219.696Z" stroke="url(#paint21_linear)" stroke-width="2"/>
<path d="M3.50001 157.182C3.50268 153.919 4.47266 150.73 6.28732 148.019C8.10199 145.307 10.6799 143.194 13.6951 141.948C16.7103 140.701 20.0275 140.376 23.2273 141.014C26.4271 141.652 29.3658 143.225 31.672 145.533C33.9782 147.841 35.5484 150.781 36.1839 153.982C36.8195 157.182 36.492 160.499 35.2427 163.513C33.9935 166.527 31.8786 169.103 29.1655 170.916C26.4524 172.728 23.2628 173.696 20 173.696C17.8321 173.696 15.6854 173.268 13.6826 172.438C11.6799 171.608 9.8603 170.392 8.32796 168.858C6.79561 167.324 5.58052 165.504 4.75211 163.5C3.92371 161.497 3.49823 159.35 3.50001 157.182V157.182Z" stroke="white" stroke-width="2"/>
<path d="M3.50001 157.182C3.50268 153.919 4.47266 150.73 6.28732 148.019C8.10199 145.307 10.6799 143.194 13.6951 141.948C16.7103 140.701 20.0275 140.376 23.2273 141.014C26.4271 141.652 29.3658 143.225 31.672 145.533C33.9782 147.841 35.5484 150.781 36.1839 153.982C36.8195 157.182 36.492 160.499 35.2427 163.513C33.9935 166.527 31.8786 169.103 29.1655 170.916C26.4524 172.728 23.2628 173.696 20 173.696C17.8321 173.696 15.6854 173.268 13.6826 172.438C11.6799 171.608 9.8603 170.392 8.32796 168.858C6.79561 167.324 5.58052 165.504 4.75211 163.5C3.92371 161.497 3.49823 159.35 3.50001 157.182V157.182Z" stroke="url(#paint22_linear)" stroke-width="2"/>
<path d="M20 81.6956C29.1127 81.6956 36.5 74.3082 36.5 65.1956C36.5 56.0829 29.1127 48.6956 20 48.6956C10.8873 48.6956 3.5 56.0829 3.5 65.1956C3.5 74.3082 10.8873 81.6956 20 81.6956Z" stroke="white" stroke-width="2"/>
<path d="M20 81.6956C29.1127 81.6956 36.5 74.3082 36.5 65.1956C36.5 56.0829 29.1127 48.6956 20 48.6956C10.8873 48.6956 3.5 56.0829 3.5 65.1956C3.5 74.3082 10.8873 81.6956 20 81.6956Z" stroke="url(#paint23_linear)" stroke-width="2"/>
<path d="M36.3658 24.0425C38.4157 15.1634 32.8795 6.30347 24.0004 4.25337C15.1213 2.20327 6.2616 7.73931 4.21169 16.6184C2.16178 25.4976 7.69793 34.3575 16.577 36.4076C25.4561 38.4577 34.3158 32.9216 36.3658 24.0425Z" stroke="white" stroke-width="2"/>
<path d="M36.3658 24.0425C38.4157 15.1634 32.8795 6.30347 24.0004 4.25337C15.1213 2.20327 6.2616 7.73931 4.21169 16.6184C2.16178 25.4976 7.69793 34.3575 16.577 36.4076C25.4561 38.4577 34.3158 32.9216 36.3658 24.0425Z" stroke="url(#paint24_linear)" stroke-width="2"/>
<defs>
<linearGradient id="paint0_linear" x1="251" y1="233.696" x2="251" y2="266.696" gradientUnits="userSpaceOnUse">
<stop stop-color="#E1A352"/>
<stop offset="1" stop-color="#E3A655"/>
</linearGradient>
<linearGradient id="paint1_linear" x1="251" y1="140.696" x2="251" y2="173.696" gradientUnits="userSpaceOnUse">
<stop stop-color="#E1A352"/>
<stop offset="1" stop-color="#E3A655"/>
</linearGradient>
<linearGradient id="paint2_linear" x1="251" y1="2.69556" x2="251" y2="35.6956" gradientUnits="userSpaceOnUse">
<stop stop-color="#E1A352"/>
<stop offset="1" stop-color="#E3A655"/>
</linearGradient>
<linearGradient id="paint3_linear" x1="204.5" y1="232.696" x2="204.5" y2="266.696" gradientUnits="userSpaceOnUse">
<stop stop-color="#E1A352"/>
<stop offset="1" stop-color="#E3A655"/>
</linearGradient>
<linearGradient id="paint4_linear" x1="204.5" y1="140.696" x2="204.5" y2="174.696" gradientUnits="userSpaceOnUse">
<stop stop-color="#E1A352"/>
<stop offset="1" stop-color="#E3A655"/>
</linearGradient>
<linearGradient id="paint5_linear" x1="204.5" y1="94.6956" x2="204.5" y2="128.696" gradientUnits="userSpaceOnUse">
<stop stop-color="#E1A352"/>
<stop offset="1" stop-color="#E3A655"/>
</linearGradient>
<linearGradient id="paint6_linear" x1="204.5" y1="48.6956" x2="204.5" y2="82.6956" gradientUnits="userSpaceOnUse">
<stop stop-color="#E1A352"/>
<stop offset="1" stop-color="#E3A655"/>
</linearGradient>
<linearGradient id="paint7_linear" x1="204.5" y1="2.69556" x2="204.5" y2="36.6956" gradientUnits="userSpaceOnUse">
<stop stop-color="#E1A352"/>
<stop offset="1" stop-color="#E3A655"/>
</linearGradient>
<linearGradient id="paint8_linear" x1="158" y1="233.696" x2="158" y2="266.696" gradientUnits="userSpaceOnUse">
<stop stop-color="#E1A352"/>
<stop offset="1" stop-color="#E3A655"/>
</linearGradient>
<linearGradient id="paint9_linear" x1="158" y1="186.696" x2="158" y2="219.696" gradientUnits="userSpaceOnUse">
<stop stop-color="#E1A352"/>
<stop offset="1" stop-color="#E3A655"/>
</linearGradient>
<linearGradient id="paint10_linear" x1="158" y1="94.6956" x2="158" y2="129.696" gradientUnits="userSpaceOnUse">
<stop stop-color="#E1A352"/>
<stop offset="1" stop-color="#E3A655"/>
</linearGradient>
<linearGradient id="paint11_linear" x1="159" y1="48.6956" x2="159" y2="83.6956" gradientUnits="userSpaceOnUse">
<stop stop-color="#E1A352"/>
<stop offset="1" stop-color="#E3A655"/>
</linearGradient>
<linearGradient id="paint12_linear" x1="159" y1="2.69556" x2="159" y2="37.6956" gradientUnits="userSpaceOnUse">
<stop stop-color="#E1A352"/>
<stop offset="1" stop-color="#E3A655"/>
</linearGradient>
<linearGradient id="paint13_linear" x1="113" y1="186.696" x2="113" y2="221.696" gradientUnits="userSpaceOnUse">
<stop stop-color="#E1A352"/>
<stop offset="1" stop-color="#E3A655"/>
</linearGradient>
<linearGradient id="paint14_linear" x1="113" y1="140.696" x2="113" y2="175.696" gradientUnits="userSpaceOnUse">
<stop stop-color="#E1A352"/>
<stop offset="1" stop-color="#E3A655"/>
</linearGradient>
<linearGradient id="paint15_linear" x1="113" y1="94.6956" x2="113" y2="128.696" gradientUnits="userSpaceOnUse">
<stop stop-color="#E1A352"/>
<stop offset="1" stop-color="#E3A655"/>
</linearGradient>
<linearGradient id="paint16_linear" x1="96.2117" y1="61.6184" x2="128.366" y2="69.0418" gradientUnits="userSpaceOnUse">
<stop stop-color="#E1A352"/>
<stop offset="1" stop-color="#E3A655"/>
</linearGradient>
<linearGradient id="paint17_linear" x1="113" y1="2.69556" x2="113" y2="37.6956" gradientUnits="userSpaceOnUse">
<stop stop-color="#E1A352"/>
<stop offset="1" stop-color="#E3A655"/>
</linearGradient>
<linearGradient id="paint18_linear" x1="66.5" y1="186.696" x2="66.5" y2="219.696" gradientUnits="userSpaceOnUse">
<stop stop-color="#E1A352"/>
<stop offset="1" stop-color="#E3A655"/>
</linearGradient>
<linearGradient id="paint19_linear" x1="66.5" y1="94.6956" x2="66.5" y2="128.696" gradientUnits="userSpaceOnUse">
<stop stop-color="#E1A352"/>
<stop offset="1" stop-color="#E3A655"/>
</linearGradient>
<linearGradient id="paint20_linear" x1="66.5" y1="48.6956" x2="66.5" y2="81.6956" gradientUnits="userSpaceOnUse">
<stop stop-color="#E1A352"/>
<stop offset="1" stop-color="#E3A655"/>
</linearGradient>
<linearGradient id="paint21_linear" x1="20" y1="186.696" x2="20" y2="219.696" gradientUnits="userSpaceOnUse">
<stop stop-color="#E1A352"/>
<stop offset="1" stop-color="#E3A655"/>
</linearGradient>
<linearGradient id="paint22_linear" x1="20" y1="140.696" x2="20" y2="173.696" gradientUnits="userSpaceOnUse">
<stop stop-color="#E1A352"/>
<stop offset="1" stop-color="#E3A655"/>
</linearGradient>
<linearGradient id="paint23_linear" x1="20" y1="48.6956" x2="20" y2="81.6956" gradientUnits="userSpaceOnUse">
<stop stop-color="#E1A352"/>
<stop offset="1" stop-color="#E3A655"/>
</linearGradient>
<linearGradient id="paint24_linear" x1="4.21169" y1="16.6184" x2="36.3659" y2="24.0418" gradientUnits="userSpaceOnUse">
<stop stop-color="#E1A352"/>
<stop offset="1" stop-color="#E3A655"/>
</linearGradient>
</defs>
</svg>
